<?xml version="1.0" ?><svg id="Layer_1" style="enable-background:new 0 0 65 65;" version="1.1" viewBox="0 0 65 65" xml:space="preserve" xmlns="http://www.w3.org/2000/svg" xmlns:xlink="http://www.w3.org/1999/xlink"><style type="text/css">
	.st0{fill:#FFEC63;}
	.st1{fill:#FFDB5B;}
	.st2{opacity:0.1;}
	.st3{fill:#E78555;}
	.st4{fill:#FB9179;}
	.st5{fill:none;stroke:#D27A31;stroke-width:2;stroke-linecap:round;stroke-linejoin:round;stroke-miterlimit:10;}
	.st6{fill:#EBD231;}
	.st7{fill:#FFAA32;}
	.st8{fill:#E78E21;}
	.st9{fill:#FEFEFE;}
	.st10{fill:none;stroke:#FFAA32;stroke-width:2;stroke-miterlimit:10;}
	.st11{fill:none;stroke:#FFAA32;stroke-width:2;stroke-linecap:round;stroke-linejoin:round;stroke-miterlimit:10;}
	.st12{fill:#FEB94B;}
	.st13{fill:#FFD886;}
	.st14{fill:#D27A31;}
	.st15{fill:#FFF8C0;}
	.st16{opacity:7.000000e-02;}
	.st17{fill:#FD6148;}
	.st18{fill:#FC8169;}
	.st19{fill:#FC7158;}
	.st20{fill:#FFB5A9;}
	.st21{fill:#E24434;}
	.st22{fill:#D6B52D;}
	.st23{fill:#E2473B;}
	.st24{opacity:0.2;}
	.st25{fill:#F39C29;}
	.st26{fill:none;stroke:#FB9179;stroke-width:4;stroke-linecap:round;stroke-linejoin:round;stroke-miterlimit:10;}
	.st27{opacity:0.2;fill:#FEFEFE;}
	.st28{opacity:5.000000e-02;}
	.st29{fill:none;stroke:#E2473B;stroke-width:6;stroke-miterlimit:10;}
	.st30{fill:none;stroke:#E2473B;stroke-width:2;stroke-linecap:round;stroke-linejoin:round;stroke-miterlimit:10;}
	.st31{fill:#FFA799;}
	.st32{fill:#E8DEA0;}
	.st33{fill:none;stroke:#D6B52D;stroke-width:2;stroke-linecap:round;stroke-linejoin:round;stroke-miterlimit:10;}
	.st34{fill:none;stroke:#F39C29;stroke-width:4;stroke-linecap:round;stroke-linejoin:round;stroke-miterlimit:10;}
	.st35{fill:none;stroke:#F39C29;stroke-width:2;stroke-linecap:round;stroke-linejoin:round;stroke-miterlimit:10;}
</style><g><path class="st12" d="M44.6,8.1c-0.6,0-1.2,0.1-1.8,0.2c-0.7-3.9-4.1-6.8-8.1-6.8c-4.6,0-8.3,3.7-8.3,8.3c0,0,0,0,0,0   c-1.4-1-3.1-1.7-5-1.7c-4.6,0-8.3,3.7-8.3,8.3c0,4.6,3.7,8.3,8.3,8.3s19.1,0,23.2,0c4.6,0,8.3-3.7,8.3-8.3   C52.9,11.8,49.2,8.1,44.6,8.1z"/><path class="st2" d="M34.7,1.5c-4.6,0-8.3,3.7-8.3,8.3c0,0,0,0,0,0c-1.4-1-3.1-1.7-5-1.7c-4.6,0-8.3,3.7-8.3,8.3   c0,3.5,2.2,6.5,5.3,7.7c-1.4-1.5-2.3-3.5-2.3-5.7c0-4.6,3.7-8.3,8.3-8.3c1.9,0,3.6,0.6,5,1.7c0,0,0,0,0,0c0-4.6,3.7-8.3,8.3-8.3   c1,0,2,0.2,2.9,0.5C39.1,2.5,37,1.5,34.7,1.5z"/><path class="st15" d="M13.9,29.8c0,0,3.6-11.8,17.6-12.6c7.1-0.4,14.2,2.4,19.1,7.6c3.8,4,7.6,10,8.6,18.8   c2.2,18.9-35.3,19.9-35.3,19.9s-1.9-8.2,1.6-13.9C25.5,49.6,26.7,32,13.9,29.8z"/><path class="st8" d="M21.7,34.6c-3.4,0-13.9,0.5-16,5c0,0,2.9-3.9,18-1.5C23.1,36.8,22.5,35.7,21.7,34.6z"/><path class="st7" d="M13.9,29.8c-8.7,3.8-8.2,9.8-8.2,9.8c2.1-4.4,12.6-4.9,16-5C20,32.3,17.5,30.4,13.9,29.8z"/><path class="st14" d="M21.7,34.6c0,0-7.6,3.7-5.2,12.9c1,3.7,2.9,5,4.8,5.1c3.3,0.3,6-2.8,5.6-6.2C26.5,42.5,25.3,36.9,21.7,34.6z"/><path class="st9" d="M53.1,34.9c0.6,2.2,0.6,4.6,0.1,7c-0.5,2.3-1.5,4.5-2.9,6.4c-1.4,1.9-3.3,3.5-5.4,4.6   c-2.1,1.1-4.4,1.8-6.7,1.8c4.5-1.1,8.4-3.6,11.1-7.2C51.9,44,53.2,39.5,53.1,34.9z"/><path class="st7" d="M25.6,24.3c-0.1,0-0.1,0-0.2,0c-6.8,1.2-5.1,11.5,1.7,10.5c0.1,0,0.1,0,0.2,0c7.2-1.2,6.3-6.4,13.6-7.6   C33.7,28.3,32.8,23.1,25.6,24.3z"/><g><circle class="st9" cx="28" cy="29.5" r="3"/><circle class="st14" cx="28" cy="29.5" r="1.5"/></g><g class="st2"><path d="M14.6,28c-0.5,1-0.7,1.7-0.7,1.7c2,0.3,3.6,1.1,5,2C17.8,30.3,16.4,29,14.6,28z"/><path d="M59.2,43.6c-1-8.8-4.8-14.8-8.6-18.8c-0.6-0.6-1.2-1.2-1.9-1.8c3.4,4,6.6,9.6,7.5,17.6c1.8,15.9-24.3,19.1-32.8,19.8    c0.1,1.9,0.4,3.1,0.4,3.1S61.4,62.5,59.2,43.6z"/></g></g></svg>