<?xml version="1.0" ?><svg id="Layer_1" style="enable-background:new 0 0 65 65;" version="1.1" viewBox="0 0 65 65" xml:space="preserve" xmlns="http://www.w3.org/2000/svg" xmlns:xlink="http://www.w3.org/1999/xlink"><style type="text/css">
	.st0{fill:#FFEC63;}
	.st1{fill:#FFDB5B;}
	.st2{opacity:0.1;}
	.st3{fill:#E78555;}
	.st4{fill:#FB9179;}
	.st5{fill:none;stroke:#D27A31;stroke-width:2;stroke-linecap:round;stroke-linejoin:round;stroke-miterlimit:10;}
	.st6{fill:#EBD231;}
	.st7{fill:#FFAA32;}
	.st8{fill:#E78E21;}
	.st9{fill:#FEFEFE;}
	.st10{fill:none;stroke:#FFAA32;stroke-width:2;stroke-miterlimit:10;}
	.st11{fill:none;stroke:#FFAA32;stroke-width:2;stroke-linecap:round;stroke-linejoin:round;stroke-miterlimit:10;}
	.st12{fill:#FEB94B;}
	.st13{fill:#FFD886;}
	.st14{fill:#D27A31;}
	.st15{fill:#FFF8C0;}
	.st16{opacity:7.000000e-02;}
	.st17{fill:#FD6148;}
	.st18{fill:#FC8169;}
	.st19{fill:#FC7158;}
	.st20{fill:#FFB5A9;}
	.st21{fill:#E24434;}
	.st22{fill:#D6B52D;}
	.st23{fill:#E2473B;}
	.st24{opacity:0.2;}
	.st25{fill:#F39C29;}
	.st26{fill:none;stroke:#FB9179;stroke-width:4;stroke-linecap:round;stroke-linejoin:round;stroke-miterlimit:10;}
	.st27{opacity:0.2;fill:#FEFEFE;}
	.st28{opacity:5.000000e-02;}
	.st29{fill:none;stroke:#E2473B;stroke-width:6;stroke-miterlimit:10;}
	.st30{fill:none;stroke:#E2473B;stroke-width:2;stroke-linecap:round;stroke-linejoin:round;stroke-miterlimit:10;}
	.st31{fill:#FFA799;}
	.st32{fill:#E8DEA0;}
	.st33{fill:none;stroke:#D6B52D;stroke-width:2;stroke-linecap:round;stroke-linejoin:round;stroke-miterlimit:10;}
	.st34{fill:none;stroke:#F39C29;stroke-width:4;stroke-linecap:round;stroke-linejoin:round;stroke-miterlimit:10;}
	.st35{fill:none;stroke:#F39C29;stroke-width:2;stroke-linecap:round;stroke-linejoin:round;stroke-miterlimit:10;}
</style><g><circle class="st3" cx="15.5" cy="48.5" r="14"/><path class="st2" d="M4.5,48.5c0-7.2,5.5-13.2,12.5-13.9c-0.5-0.1-1-0.1-1.5-0.1c-7.7,0-14,6.3-14,14s6.3,14,14,14   c0.5,0,1,0,1.5-0.1C10,61.7,4.5,55.7,4.5,48.5z"/><circle class="st3" cx="49.5" cy="48.5" r="14"/><path class="st2" d="M38.5,48.5c0-7.2,5.5-13.2,12.5-13.9c-0.5-0.1-1-0.1-1.5-0.1c-7.7,0-14,6.3-14,14s6.3,14,14,14   c0.5,0,1,0,1.5-0.1C44,61.7,38.5,55.7,38.5,48.5z"/><path class="st5" d="M15.5,39.5c0,0,1-22,27-24c0,0-5,12,7,23"/><path class="st6" d="M55.6,15.6c-3-3-7.4-3.7-11-2.1c1.6-3.7,0.9-8.1-2.1-11l0,0c-3.6,3.6-3.9,9.2-0.9,13.1c0,0,0.3,0.4,0.4,0.5   c0.2,0.2,0.5,0.5,0.5,0.4C46.4,19.5,52,19.2,55.6,15.6z"/><g><circle class="st4" cx="20.4" cy="41.8" r="1"/><circle class="st4" cx="23.2" cy="41.8" r="1"/><circle class="st4" cx="23.2" cy="44.6" r="1"/></g><g><circle class="st4" cx="54.4" cy="41.8" r="1"/><circle class="st4" cx="57.2" cy="41.8" r="1"/><circle class="st4" cx="57.2" cy="44.6" r="1"/></g></g></svg>