<?xml version="1.0" ?><svg id="Layer_1" style="enable-background:new 0 0 65 65;" version="1.1" viewBox="0 0 65 65" xml:space="preserve" xmlns="http://www.w3.org/2000/svg" xmlns:xlink="http://www.w3.org/1999/xlink"><style type="text/css">
	.st0{fill:#FFEC63;}
	.st1{fill:#FFDB5B;}
	.st2{opacity:0.1;}
	.st3{fill:#E78555;}
	.st4{fill:#FB9179;}
	.st5{fill:none;stroke:#D27A31;stroke-width:2;stroke-linecap:round;stroke-linejoin:round;stroke-miterlimit:10;}
	.st6{fill:#EBD231;}
	.st7{fill:#FFAA32;}
	.st8{fill:#E78E21;}
	.st9{fill:#FEFEFE;}
	.st10{fill:none;stroke:#FFAA32;stroke-width:2;stroke-miterlimit:10;}
	.st11{fill:none;stroke:#FFAA32;stroke-width:2;stroke-linecap:round;stroke-linejoin:round;stroke-miterlimit:10;}
	.st12{fill:#FEB94B;}
	.st13{fill:#FFD886;}
	.st14{fill:#D27A31;}
	.st15{fill:#FFF8C0;}
	.st16{opacity:7.000000e-02;}
	.st17{fill:#FD6148;}
	.st18{fill:#FC8169;}
	.st19{fill:#FC7158;}
	.st20{fill:#FFB5A9;}
	.st21{fill:#E24434;}
	.st22{fill:#D6B52D;}
	.st23{fill:#E2473B;}
	.st24{opacity:0.2;}
	.st25{fill:#F39C29;}
	.st26{fill:none;stroke:#FB9179;stroke-width:4;stroke-linecap:round;stroke-linejoin:round;stroke-miterlimit:10;}
	.st27{opacity:0.2;fill:#FEFEFE;}
	.st28{opacity:5.000000e-02;}
	.st29{fill:none;stroke:#E2473B;stroke-width:6;stroke-miterlimit:10;}
	.st30{fill:none;stroke:#E2473B;stroke-width:2;stroke-linecap:round;stroke-linejoin:round;stroke-miterlimit:10;}
	.st31{fill:#FFA799;}
	.st32{fill:#E8DEA0;}
	.st33{fill:none;stroke:#D6B52D;stroke-width:2;stroke-linecap:round;stroke-linejoin:round;stroke-miterlimit:10;}
	.st34{fill:none;stroke:#F39C29;stroke-width:4;stroke-linecap:round;stroke-linejoin:round;stroke-miterlimit:10;}
	.st35{fill:none;stroke:#F39C29;stroke-width:2;stroke-linecap:round;stroke-linejoin:round;stroke-miterlimit:10;}
</style><g><path class="st12" d="M5.5,43.5c0,9.9,8.1,18,18,18h18c9.9,0,18-8.1,18-18H5.5z"/><g><path class="st13" d="M41.5,58c-0.3,0-0.5-0.2-0.5-0.5s0.2-0.5,0.5-0.5c5.9,0,11.2-4,12.9-9.6c0.1-0.3,0.4-0.4,0.6-0.3    c0.3,0.1,0.4,0.4,0.3,0.6C53.6,53.7,47.9,58,41.5,58z"/></g><path class="st12" d="M59.5,21.5c0-9.9-8.1-18-18-18h-18c-9.9,0-18,8.1-18,18H59.5z"/><g><path class="st13" d="M54.9,18c-0.2,0-0.4-0.1-0.5-0.4C52.7,12,47.4,8,41.5,8C41.2,8,41,7.8,41,7.5S41.2,7,41.5,7    c6.4,0,12.1,4.3,13.9,10.4c0.1,0.3-0.1,0.5-0.3,0.6C55,18,55,18,54.9,18z"/></g><path class="st14" d="M60.5,33.5h-56c-1.7,0-3,1.3-3,3s1.3,3,3,3h56c1.7,0,3-1.3,3-3S62.2,33.5,60.5,33.5z"/><path class="st3" d="M2.5,41.5L2.5,41.5c0,1.1,0.9,2,2,2h56c1.1,0,2-0.9,2-2v0c0-1.1-0.9-2-2-2h-56C3.4,39.5,2.5,40.4,2.5,41.5z"/><path class="st0" d="M63.5,30.5c0,1.7-1.3,3-3,3H35.7l-7.9,11.1c-1.6,2.2-4.9,2.2-6.5,0l-7.9-11.1H4.5c-1.7,0-3-1.3-3-3   c0-1.7,1.3-3,3-3h56C62.2,27.5,63.5,28.8,63.5,30.5z"/><path class="st2" d="M53.5,25.5v9c0,1.1-0.9,2-2,2c-1.1,0-2-0.9-2-2v3c0,1.1-0.9,2-2,2c-1.1,0-2-0.9-2-2v-12H53.5z"/><path class="st2" d="M9.5,43.5h-4c0,9.9,8.1,18,18,18h4C17.6,61.5,9.5,53.4,9.5,43.5z"/><path class="st2" d="M27.5,3.5h-4c-9.9,0-18,8.1-18,18h4C9.5,11.6,17.6,3.5,27.5,3.5z"/><path class="st2" d="M5.5,36.5c0-1.7,1.3-3,3-3h-4c-1.7,0-3,1.3-3,3s1.3,3,3,3h4C6.8,39.5,5.5,38.2,5.5,36.5z"/><path class="st2" d="M6.5,41.5c0-1.1,0.9-2,2-2h-4c-1.1,0-2,0.9-2,2s0.9,2,2,2h4C7.4,43.5,6.5,42.6,6.5,41.5z"/><g class="st2"><path d="M23.2,42.6l-7.9-11.1H6.5c-1.7,0-3-1.3-3-3c0-0.3,0.1-0.6,0.1-0.9c-1.2,0.4-2.1,1.5-2.1,2.9c0,1.7,1.3,3,3,3h8.9l7.9,11.1    c1.6,2.2,4.9,2.2,6.5,0l0.5-0.7C26.6,44.7,24.4,44.3,23.2,42.6z"/></g><g class="st2"><circle cx="21.5" cy="8.5" r="2"/><circle cx="17.5" cy="13.5" r="2"/><circle cx="25.5" cy="13.5" r="2"/></g><g class="st2"><circle cx="21.5" cy="55.5" r="2"/><circle cx="25.5" cy="50.5" r="2"/><circle cx="17.5" cy="50.5" r="2"/></g><path class="st3" d="M51.5,25.5v9c0,1.1-0.9,2-2,2c-1.1,0-2-0.9-2-2v3c0,1.1-0.9,2-2,2c-1.1,0-2-0.9-2-2v-12H51.5z"/><path class="st3" d="M60.5,21.5h-56c-1.7,0-3,1.3-3,3s1.3,3,3,3h56c1.7,0,3-1.3,3-3S62.2,21.5,60.5,21.5z"/><path class="st2" d="M5.5,24.5c0-1.7,1.3-3,3-3h-4c-1.7,0-3,1.3-3,3s1.3,3,3,3h4C6.8,27.5,5.5,26.2,5.5,24.5z"/><g><path class="st4" d="M50,34.5c-0.3,0-0.5-0.2-0.5-0.5v-6c0-0.3,0.2-0.5,0.5-0.5s0.5,0.2,0.5,0.5v6C50.5,34.3,50.3,34.5,50,34.5z"/></g></g></svg>