<?xml version="1.0" ?><svg id="Layer_1" style="enable-background:new 0 0 65 65;" version="1.1" viewBox="0 0 65 65" xml:space="preserve" xmlns="http://www.w3.org/2000/svg" xmlns:xlink="http://www.w3.org/1999/xlink"><style type="text/css">
	.st0{fill:#FFEC63;}
	.st1{fill:#FFDB5B;}
	.st2{opacity:0.1;}
	.st3{fill:#E78555;}
	.st4{fill:#FB9179;}
	.st5{fill:none;stroke:#D27A31;stroke-width:2;stroke-linecap:round;stroke-linejoin:round;stroke-miterlimit:10;}
	.st6{fill:#EBD231;}
	.st7{fill:#FFAA32;}
	.st8{fill:#E78E21;}
	.st9{fill:#FEFEFE;}
	.st10{fill:none;stroke:#FFAA32;stroke-width:2;stroke-miterlimit:10;}
	.st11{fill:none;stroke:#FFAA32;stroke-width:2;stroke-linecap:round;stroke-linejoin:round;stroke-miterlimit:10;}
	.st12{fill:#FEB94B;}
	.st13{fill:#FFD886;}
	.st14{fill:#D27A31;}
	.st15{fill:#FFF8C0;}
	.st16{opacity:7.000000e-02;}
	.st17{fill:#FD6148;}
	.st18{fill:#FC8169;}
	.st19{fill:#FC7158;}
	.st20{fill:#FFB5A9;}
	.st21{fill:#E24434;}
	.st22{fill:#D6B52D;}
	.st23{fill:#E2473B;}
	.st24{opacity:0.2;}
	.st25{fill:#F39C29;}
	.st26{fill:none;stroke:#FB9179;stroke-width:4;stroke-linecap:round;stroke-linejoin:round;stroke-miterlimit:10;}
	.st27{opacity:0.2;fill:#FEFEFE;}
	.st28{opacity:5.000000e-02;}
	.st29{fill:none;stroke:#E2473B;stroke-width:6;stroke-miterlimit:10;}
	.st30{fill:none;stroke:#E2473B;stroke-width:2;stroke-linecap:round;stroke-linejoin:round;stroke-miterlimit:10;}
	.st31{fill:#FFA799;}
	.st32{fill:#E8DEA0;}
	.st33{fill:none;stroke:#D6B52D;stroke-width:2;stroke-linecap:round;stroke-linejoin:round;stroke-miterlimit:10;}
	.st34{fill:none;stroke:#F39C29;stroke-width:4;stroke-linecap:round;stroke-linejoin:round;stroke-miterlimit:10;}
	.st35{fill:none;stroke:#F39C29;stroke-width:2;stroke-linecap:round;stroke-linejoin:round;stroke-miterlimit:10;}
</style><g><circle class="st8" cx="32.5" cy="32.5" r="31"/><circle class="st0" cx="32.5" cy="32.5" r="27"/><circle class="st7" cx="32.5" cy="32.5" r="3"/><g><path class="st7" d="M23.5,34H9.6c0.3,5.2,2.4,10,5.7,13.7l9.9-9.9C26.5,36.4,25.5,34,23.5,34z"/><path class="st7" d="M27.2,25.1c1.4,1.4,3.8,0.4,3.8-1.6V9.6c-5.2,0.3-10,2.4-13.7,5.7L27.2,25.1z"/><path class="st7" d="M25.1,27.2l-9.9-9.9C12,21,9.9,25.8,9.6,31h13.9C25.5,31,26.5,28.6,25.1,27.2z"/><path class="st7" d="M37.8,25.1l9.9-9.9C44,12,39.2,9.9,34,9.6v13.9C34,25.5,36.4,26.5,37.8,25.1z"/><path class="st7" d="M39.9,37.8l9.9,9.9C53,44,55.1,39.2,55.4,34H41.5C39.5,34,38.5,36.4,39.9,37.8z"/><path class="st7" d="M41.5,31h13.9c-0.3-5.2-2.4-10-5.7-13.7l-9.9,9.9C38.5,28.6,39.5,31,41.5,31z"/><path class="st7" d="M27.2,39.9l-9.9,9.9C21,53,25.8,55.1,31,55.4V41.5C31,39.5,28.6,38.5,27.2,39.9z"/><path class="st7" d="M34,41.5v13.9c5.2-0.3,10-2.4,13.7-5.7l-9.9-9.9C36.4,38.5,34,39.5,34,41.5z"/></g><path class="st2" d="M5.5,32.5c0-16.4,12.8-29.9,29-30.9c-0.7,0-1.3-0.1-2-0.1c-17.1,0-31,13.9-31,31c0,17.1,13.9,31,31,31   c0.7,0,1.3,0,2-0.1C18.3,62.4,5.5,48.9,5.5,32.5z"/></g></svg>