<?xml version="1.0" ?><svg id="Layer_1" style="enable-background:new 0 0 65 65;" version="1.1" viewBox="0 0 65 65" xml:space="preserve" xmlns="http://www.w3.org/2000/svg" xmlns:xlink="http://www.w3.org/1999/xlink"><style type="text/css">
	.st0{fill:#FFEC63;}
	.st1{fill:#FFDB5B;}
	.st2{opacity:0.1;}
	.st3{fill:#E78555;}
	.st4{fill:#FB9179;}
	.st5{fill:none;stroke:#D27A31;stroke-width:2;stroke-linecap:round;stroke-linejoin:round;stroke-miterlimit:10;}
	.st6{fill:#EBD231;}
	.st7{fill:#FFAA32;}
	.st8{fill:#E78E21;}
	.st9{fill:#FEFEFE;}
	.st10{fill:none;stroke:#FFAA32;stroke-width:2;stroke-miterlimit:10;}
	.st11{fill:none;stroke:#FFAA32;stroke-width:2;stroke-linecap:round;stroke-linejoin:round;stroke-miterlimit:10;}
	.st12{fill:#FEB94B;}
	.st13{fill:#FFD886;}
	.st14{fill:#D27A31;}
	.st15{fill:#FFF8C0;}
	.st16{opacity:7.000000e-02;}
	.st17{fill:#FD6148;}
	.st18{fill:#FC8169;}
	.st19{fill:#FC7158;}
	.st20{fill:#FFB5A9;}
	.st21{fill:#E24434;}
	.st22{fill:#D6B52D;}
	.st23{fill:#E2473B;}
	.st24{opacity:0.2;}
	.st25{fill:#F39C29;}
	.st26{fill:none;stroke:#FB9179;stroke-width:4;stroke-linecap:round;stroke-linejoin:round;stroke-miterlimit:10;}
	.st27{opacity:0.2;fill:#FEFEFE;}
	.st28{opacity:5.000000e-02;}
	.st29{fill:none;stroke:#E2473B;stroke-width:6;stroke-miterlimit:10;}
	.st30{fill:none;stroke:#E2473B;stroke-width:2;stroke-linecap:round;stroke-linejoin:round;stroke-miterlimit:10;}
	.st31{fill:#FFA799;}
	.st32{fill:#E8DEA0;}
	.st33{fill:none;stroke:#D6B52D;stroke-width:2;stroke-linecap:round;stroke-linejoin:round;stroke-miterlimit:10;}
	.st34{fill:none;stroke:#F39C29;stroke-width:4;stroke-linecap:round;stroke-linejoin:round;stroke-miterlimit:10;}
	.st35{fill:none;stroke:#F39C29;stroke-width:2;stroke-linecap:round;stroke-linejoin:round;stroke-miterlimit:10;}
</style><g><path class="st17" d="M62.5,39c0-0.3,0-0.5,0-0.8c0-14.5-13.4-26.2-30-26.2s-30,11.7-30,26.2c0,0.3,0,0.5,0,0.8H62.5z"/><path class="st2" d="M34.5,12.1c-0.7,0-1.3-0.1-2-0.1c-16.6,0-30,11.7-30,26.2c0,0.3,0,0.5,0,0.8h4c0-0.3,0-0.5,0-0.8   C6.5,24.3,18.9,13,34.5,12.1z"/><g><g><polygon class="st6" points="36.5,63 28.5,63 26.3,39 38.7,39    "/><polygon class="st0" points="44.6,63 36.5,63 38.7,39 51.1,39    "/><polygon class="st6" points="52.7,63 44.6,63 51.1,39 63.5,39    "/><polygon class="st6" points="20.4,63 12.3,63 1.5,39 13.9,39    "/><polygon class="st0" points="28.5,63 20.4,63 13.9,39 26.3,39    "/></g><path class="st22" d="M7.7,31c-3.4,0-6.2,2.8-6.2,6.2V39h12.4v-1.8C13.9,33.8,11.1,31,7.7,31z"/><path class="st6" d="M20.1,31c-3.4,0-6.2,2.8-6.2,6.2V39h12.4v-1.8C26.3,33.8,23.5,31,20.1,31z"/><path class="st22" d="M32.5,31c-3.4,0-6.2,2.8-6.2,6.2V39h12.4v-1.8C38.7,33.8,35.9,31,32.5,31z"/><path class="st6" d="M44.9,31c-3.4,0-6.2,2.8-6.2,6.2V39h12.4v-1.8C51.1,33.8,48.3,31,44.9,31z"/><path class="st22" d="M57.3,31c-3.4,0-6.2,2.8-6.2,6.2V39h12.4v-1.8C63.5,33.8,60.7,31,57.3,31z"/></g><g><circle class="st23" cx="32.5" cy="12" r="7"/><path class="st2" d="M28.3,12c0-3.4,2.4-6.2,5.6-6.9C33.4,5,33,5,32.5,5c-3.9,0-7,3.1-7,7s3.1,7,7,7c0.5,0,0.9,0,1.4-0.1    C30.7,18.2,28.3,15.4,28.3,12z"/></g><g><path class="st17" d="M33.1,7c-0.3,0-0.6-0.3-0.6-0.6c0-2.4,2-4.4,4.4-4.4c0.3,0,0.6,0.3,0.6,0.6s-0.3,0.6-0.6,0.6    c-1.7,0-3.1,1.4-3.1,3.1C33.8,6.7,33.5,7,33.1,7z"/></g><g><circle class="st4" cx="48.2" cy="21.3" r="2"/><circle class="st4" cx="53.2" cy="26.3" r="2"/><circle class="st4" cx="48.2" cy="26.3" r="2"/></g><polygon class="st2" points="1.5,39 12.3,63 16.3,63 5.5,39  "/></g></svg>