<?xml version="1.0" ?><svg id="Layer_1" style="enable-background:new 0 0 65 65;" version="1.1" viewBox="0 0 65 65" xml:space="preserve" xmlns="http://www.w3.org/2000/svg" xmlns:xlink="http://www.w3.org/1999/xlink"><style type="text/css">
	.st0{fill:#FFEC63;}
	.st1{fill:#FFDB5B;}
	.st2{opacity:0.1;}
	.st3{fill:#E78555;}
	.st4{fill:#FB9179;}
	.st5{fill:none;stroke:#D27A31;stroke-width:2;stroke-linecap:round;stroke-linejoin:round;stroke-miterlimit:10;}
	.st6{fill:#EBD231;}
	.st7{fill:#FFAA32;}
	.st8{fill:#E78E21;}
	.st9{fill:#FEFEFE;}
	.st10{fill:none;stroke:#FFAA32;stroke-width:2;stroke-miterlimit:10;}
	.st11{fill:none;stroke:#FFAA32;stroke-width:2;stroke-linecap:round;stroke-linejoin:round;stroke-miterlimit:10;}
	.st12{fill:#FEB94B;}
	.st13{fill:#FFD886;}
	.st14{fill:#D27A31;}
	.st15{fill:#FFF8C0;}
	.st16{opacity:7.000000e-02;}
	.st17{fill:#FD6148;}
	.st18{fill:#FC8169;}
	.st19{fill:#FC7158;}
	.st20{fill:#FFB5A9;}
	.st21{fill:#E24434;}
	.st22{fill:#D6B52D;}
	.st23{fill:#E2473B;}
	.st24{opacity:0.2;}
	.st25{fill:#F39C29;}
	.st26{fill:none;stroke:#FB9179;stroke-width:4;stroke-linecap:round;stroke-linejoin:round;stroke-miterlimit:10;}
	.st27{opacity:0.2;fill:#FEFEFE;}
	.st28{opacity:5.000000e-02;}
	.st29{fill:none;stroke:#E2473B;stroke-width:6;stroke-miterlimit:10;}
	.st30{fill:none;stroke:#E2473B;stroke-width:2;stroke-linecap:round;stroke-linejoin:round;stroke-miterlimit:10;}
	.st31{fill:#FFA799;}
	.st32{fill:#E8DEA0;}
	.st33{fill:none;stroke:#D6B52D;stroke-width:2;stroke-linecap:round;stroke-linejoin:round;stroke-miterlimit:10;}
	.st34{fill:none;stroke:#F39C29;stroke-width:4;stroke-linecap:round;stroke-linejoin:round;stroke-miterlimit:10;}
	.st35{fill:none;stroke:#F39C29;stroke-width:2;stroke-linecap:round;stroke-linejoin:round;stroke-miterlimit:10;}
</style><g><g><path class="st14" d="M25.5,24.4c-0.4,0-0.8-0.3-1-0.7c0-0.1-2.5-9.4,6.9-12.5c0.5-0.2,1.1,0.1,1.3,0.6c0.2,0.5-0.1,1.1-0.6,1.3    c-7.7,2.5-5.7,9.8-5.6,10.1c0.1,0.5-0.2,1.1-0.7,1.2C25.7,24.4,25.6,24.4,25.5,24.4z"/></g><path class="st17" d="M37.2,18.4c-4.1-0.8-8.2,0.6-11.6,3.4c-3.4-2.8-7.5-4.2-11.6-3.4c-8.7,1.6-14,12-11.9,23.2   c2.1,11.2,10.9,18.9,19.6,17.2c1.4-0.3,2.8-0.9,4-1.6c1.2,0.7,2.5,1.3,4,1.6c8.7,1.6,17.5-6.1,19.6-17.2   C51.2,30.5,45.9,20.1,37.2,18.4z"/><path class="st2" d="M6,40.6c-1.9-10,2.2-19.3,9.3-22.4c-0.5,0-0.9,0.1-1.4,0.2c-8.7,1.6-14,12-11.9,23.2   c2.1,11.2,10.9,18.9,19.6,17.2c0.9-0.2,1.7-0.5,2.5-0.8C15.8,58.6,8,51.2,6,40.6z"/><path class="st15" d="M61.4,32.4c0,0,0-0.1-0.1-0.1c-1.6-2.3-4.4-3.6-7.2-3.4c-3,0.2-5,2.1-6,3.3c-1.6,2-5.9,6.1-13.9,12.5   c-4.2,3.4-5.7,6.3-6.2,8.2c-0.2,0.9,0,1.8,0.5,2.5c4.7,6.7,15.8,6.9,24.9,0.6S66.1,39,61.4,32.4z"/><path class="st7" d="M48.2,32.2c-1.6,2-5.9,6.1-13.9,12.5c-1,0.8-1.8,1.5-2.5,2.3c0.9-0.7,2.9-1.7,6.9-2.2c6.7-0.9,7.9-2.9,7.9-2.9   C50,38,49.6,34,48.9,31.5C48.6,31.7,48.4,31.9,48.2,32.2z"/><path class="st6" d="M2.5,9c5,3.1,14.4,2.4,18.5,8.2c0,0,0,0,0,0c2-1.8,3.1-6.4-0.6-9.8C17.1,4.2,8.9,2.1,2.5,9z"/><path class="st2" d="M17.8,5.7C13.8,3.7,7.6,3.5,2.5,9c1.3,0.8,3,1.4,4.7,1.9c0,0,0,0,0,0c-0.9-0.4-1-1.6-0.3-2.2   C10.5,5.6,14.5,5,17.8,5.7z"/><ellipse class="st14" cx="45.8" cy="37.5" rx="1.5" ry="1" transform="matrix(0.7071 -0.7071 0.7071 0.7071 -13.111 43.3471)"/><g><path class="st3" d="M36.4,23.8c-0.4,0.4-0.4,1,0,1.4c0.4,0.4,1,0.4,1.4,0c0.4-0.4,0.4-1,0-1.4C37.4,23.4,36.8,23.4,36.4,23.8z"/><circle class="st3" cx="39.9" cy="24.5" r="1"/><path class="st3" d="M39.2,26.6c-0.4,0.4-0.4,1,0,1.4c0.4,0.4,1,0.4,1.4,0c0.4-0.4,0.4-1,0-1.4C40.2,26.2,39.6,26.2,39.2,26.6z"/></g><path class="st8" d="M39.3,60.6c-2.9-0.6-5.8-2-7-4.7c-2.8-6.1,2.3-11.4,2.3-11.4c-0.1,0.1-0.2,0.1-0.3,0.2   c-4.2,3.4-5.7,6.3-6.2,8.2c-0.2,0.9,0,1.8,0.5,2.5C30.9,58.7,34.9,60.4,39.3,60.6z"/></g></svg>