<?xml version="1.0" ?><svg id="Layer_1" style="enable-background:new 0 0 65 65;" version="1.1" viewBox="0 0 65 65" xml:space="preserve" xmlns="http://www.w3.org/2000/svg" xmlns:xlink="http://www.w3.org/1999/xlink"><style type="text/css">
	.st0{fill:#FFEC63;}
	.st1{fill:#FFDB5B;}
	.st2{opacity:0.1;}
	.st3{fill:#E78555;}
	.st4{fill:#FB9179;}
	.st5{fill:none;stroke:#D27A31;stroke-width:2;stroke-linecap:round;stroke-linejoin:round;stroke-miterlimit:10;}
	.st6{fill:#EBD231;}
	.st7{fill:#FFAA32;}
	.st8{fill:#E78E21;}
	.st9{fill:#FEFEFE;}
	.st10{fill:none;stroke:#FFAA32;stroke-width:2;stroke-miterlimit:10;}
	.st11{fill:none;stroke:#FFAA32;stroke-width:2;stroke-linecap:round;stroke-linejoin:round;stroke-miterlimit:10;}
	.st12{fill:#FEB94B;}
	.st13{fill:#FFD886;}
	.st14{fill:#D27A31;}
	.st15{fill:#FFF8C0;}
	.st16{opacity:7.000000e-02;}
	.st17{fill:#FD6148;}
	.st18{fill:#FC8169;}
	.st19{fill:#FC7158;}
	.st20{fill:#FFB5A9;}
	.st21{fill:#E24434;}
	.st22{fill:#D6B52D;}
	.st23{fill:#E2473B;}
	.st24{opacity:0.2;}
	.st25{fill:#F39C29;}
	.st26{fill:none;stroke:#FB9179;stroke-width:4;stroke-linecap:round;stroke-linejoin:round;stroke-miterlimit:10;}
	.st27{opacity:0.2;fill:#FEFEFE;}
	.st28{opacity:5.000000e-02;}
	.st29{fill:none;stroke:#E2473B;stroke-width:6;stroke-miterlimit:10;}
	.st30{fill:none;stroke:#E2473B;stroke-width:2;stroke-linecap:round;stroke-linejoin:round;stroke-miterlimit:10;}
	.st31{fill:#FFA799;}
	.st32{fill:#E8DEA0;}
	.st33{fill:none;stroke:#D6B52D;stroke-width:2;stroke-linecap:round;stroke-linejoin:round;stroke-miterlimit:10;}
	.st34{fill:none;stroke:#F39C29;stroke-width:4;stroke-linecap:round;stroke-linejoin:round;stroke-miterlimit:10;}
	.st35{fill:none;stroke:#F39C29;stroke-width:2;stroke-linecap:round;stroke-linejoin:round;stroke-miterlimit:10;}
</style><g><g><path class="st35" d="M60,5c-3.3,3.3-6.6,6.6-9.9,9.9"/><path class="st35" d="M62.9,14c-5-1.4-9.9-2.1-14.6-2.2"/><path class="st35" d="M51,2.1c1.4,5,2.1,9.9,2.2,14.6"/></g><path class="st7" d="M37.7,38.1c-1.1-1.2-1.6-2.8-1.5-4.3c0.1,1.5,0.8,3,1.9,3.9c0.8,0.7,1.8,1.1,2.8,1.3l9.6-9.6   c-0.5-0.1-1-0.2-1.4-0.4c-2.8-0.9-5.1-3-6.4-5.5c1.5,2.4,4,4,6.6,4.5c0.8,0.2,1.6,0.2,2.3,0.2l2.8-2.8c4.1-4.1,4.1-10.7,0-14.8   c-4.1-4.1-10.7-4.1-14.8,0l-6.9,6.9c0.2,1,0.6,2,1.3,2.8c1,1.1,2.4,1.8,3.9,1.9c-1.5,0.1-3.1-0.5-4.3-1.5c-0.7-0.7-1.3-1.5-1.7-2.5   L17.2,32.9c0,0.8,0,1.6,0.2,2.4c0.5,2.7,2.2,5.2,4.6,6.8c-2.6-1.3-4.7-3.7-5.6-6.6c-0.2-0.5-0.3-1-0.4-1.5l-0.5,0.5   C2,48.2,15.6,49.4,2.1,62.9c13.6-13.6,14.8,0,28.3-13.5l9.7-9.7C39.2,39.4,38.3,38.8,37.7,38.1z"/><g class="st2"><path d="M57.2,16.1c-0.4,2-1.3,3.9-2.9,5.4l-1.4,1.4c-1,1-2.3,1.5-3.7,1.2c0,0,0,0,0,0c-2.6-0.5-5.1-2.1-6.6-4.5    c1.2,2.5,3.6,4.6,6.4,5.5c0,0,0,0,0,0c0.9,0.3,1.1,1.5,0.3,2L48,27.8c0.4,0.1,0.8,0.2,1.2,0.3c0.8,0.2,1.6,0.2,2.3,0.2l2.8-2.8    C56.8,23,57.8,19.4,57.2,16.1z"/><path d="M47.4,28.4l-5.1,5.1c-1.2,1.2-3,1.3-4.3,0.2c0,0,0,0,0,0c-1.1-1-1.8-2.4-1.9-3.9c-0.1,1.5,0.5,3.1,1.5,4.3    c0.1,0.1,0.3,0.3,0.4,0.4c0.9,0.9,0.9,2.4,0,3.3c0.8,0.7,1.7,1.1,2.7,1.3l9.6-9.6c-0.5-0.1-1-0.2-1.4-0.4    C48.4,28.9,47.9,28.7,47.4,28.4z"/><path d="M30.4,45.4c-11.2,11.2-14,3.9-22.2,8.6c-0.7,2.4-2.4,5.2-6.2,8.9c13.6-13.6,14.8,0,28.3-13.5l9.7-9.7    c-0.9-0.3-1.7-0.9-2.4-1.6L30.4,45.4z"/></g><g class="st24"><path class="st9" d="M21.1,33.9c-0.1,0-0.3,0-0.4-0.1c-0.2-0.2-0.2-0.5,0-0.7l10-10c0.2-0.2,0.5-0.2,0.7,0s0.2,0.5,0,0.7l-10,10    C21.3,33.9,21.2,33.9,21.1,33.9z"/></g></g></svg>